<?xml version="1.0" standalone="no"?><!DOCTYPE svg PUBLIC "-//W3C//DTD SVG 1.1//EN" "http://www.w3.org/Graphics/SVG/1.1/DTD/svg11.dtd"><svg t="1625542480401" class="icon" viewBox="0 0 1024 1024" version="1.1" xmlns="http://www.w3.org/2000/svg" p-id="2426" xmlns:xlink="http://www.w3.org/1999/xlink" width="200" height="200"><defs><style type="text/css">@font-face { font-family: Georgia; src: local("Source Serif Pro"); }
@font-face { font-family: Times; src: local("Source Serif Pro"); }
@font-face { font-family: "Time New Roman"; src: local("Source Serif Pro"); }
@font-face { font-family: Arial; }
@font-face { font-family: Helvetica; }
@font-face { font-family: "Helvetica Neue"; }
@font-face { font-family: "Open Sans"; }
@font-face { font-family: "Segoe UI"; }
@font-face { font-family: Tahoma; }
@font-face { font-family: Trebuchet; }
@font-face { font-family: "Trebuchet MS"; }
@font-face { font-family: Ubuntu; }
@font-face { font-family: Verdana; }
@font-face { font-family: Consolas; src: local("Source Code Pro"); }
@font-face { font-family: Courier; src: local("Source Code Pro"); }
@font-face { font-family: "Courier New"; src: local("Source Code Pro"); }
@font-face { font-family: "Lucida Console"; src: local("Source Code Pro"); }
@font-face { font-family: "Ubuntu Mono"; src: local("Source Code Pro"); }
@font-face { font-family: SimSun; src: local("Source Han Sans SC"); }
@font-face { font-family: SimSun-ExtB; src: local("Source Han Sans SC"); }
@font-face { font-family: 宋体; src: local("Source Han Sans SC"); }
@font-face { font-family: NSimSun; src: local("Source Han Sans SC"); }
@font-face { font-family: 新宋体; src: local("Source Han Sans SC"); }
@font-face { font-family: SimHei; src: local("Source Han Sans SC"); }
@font-face { font-family: 黑体; src: local("Source Han Sans SC"); }
@font-face { font-family: "Microsoft YaHei UI"; src: local("Source Han Sans SC"); }
@font-face { font-family: "Microsoft YaHei"; src: local("Source Han Sans SC"); }
@font-face { font-family: 微软雅黑; src: local("Source Han Sans SC"); }
@font-face { font-family: "STHeiti SC"; src: local("Source Han Sans SC"); }
@font-face { font-family: "PingFang SC"; src: local("Source Han Sans SC"); }
@font-face { font-family: 苹方-简; src: local("Source Han Sans SC"); }
@font-face { font-family: MingLiU; src: local("Source Han Sans TC"); }
@font-face { font-family: MingLiU-ExtB; src: local("Source Han Sans TC"); }
@font-face { font-family: PMingLiU; src: local("Source Han Sans TC"); }
@font-face { font-family: PMingLiU-ExtB; src: local("Source Han Sans TC"); }
@font-face { font-family: "Microsoft JhengHei UI"; src: local("Source Han Sans TC"); }
@font-face { font-family: "Microsoft JhengHei"; src: local("Source Han Sans TC"); }
@font-face { font-family: 微軟正黑體; src: local("Source Han Sans TC"); }
@font-face { font-family: "STHeiti TC"; src: local("Source Han Sans TC"); }
@font-face { font-family: "PingFang TC"; src: local("Source Han Sans TC"); }
@font-face { font-family: 蘋方-繁; src: local("Source Han Sans TC"); }
@font-face { font-family: MingLiU_HKSCS; src: local("Source Han Sans HC"); }
@font-face { font-family: MingLiU_HKSCS-ExtB; src: local("Source Han Sans HC"); }
@font-face { font-family: "PingFang HK"; src: local("Source Han Sans HC"); }
@font-face { font-family: 蘋方-港; src: local("Source Han Sans HC"); }
@font-face { font-family: "MS Gothic"; src: local("Source Han Sans"); }
@font-face { font-family: "MS PGothic"; src: local("Source Han Sans"); }
@font-face { font-family: "MS UI Gothic"; src: local("Source Han Sans"); }
@font-face { font-family: "Yu Gothic"; src: local("Source Han Sans"); }
@font-face { font-family: "Yu Gothic UI"; src: local("Source Han Sans"); }
@font-face { font-family: "Malgun Gothic"; src: local("Source Han Sans K"); }
</style></defs><path d="M1010.816 628.032c0-141.248-141.312-256.256-299.904-256.256-168 0-300.288 115.136-300.288 256.192 0 141.44 132.288 256.256 300.288 256.256 35.2 0 70.656-8.96 105.984-17.728l96.832 52.992-26.624-88.192c70.912-53.184 123.712-123.712 123.712-203.328zM617.984 588.8a40 40 0 1 1 0-80 40 40 0 0 1 0 80z m194.304-0.32a40 40 0 1 1 0-80 40 40 0 0 1 0 80z" fill="#00C800" p-id="2427"></path><path d="M366.272 106.88C172.224 106.88 13.184 239.168 13.184 407.168c0 97.024 52.928 176.64 141.312 238.464l-35.328 106.176 123.456-61.888c44.16 8.704 79.552 17.664 123.648 17.664 11.136 0 22.144-0.512 33.024-1.408a262.784 262.784 0 0 1-10.88-73.984c0-154.24 132.48-279.488 300.16-279.488 11.52 0 22.848 0.768 34.048 2.112-30.656-142.208-182.72-247.936-356.352-247.936zM247.68 349.184a48 48 0 1 1 0-96 48 48 0 0 1 0 96z m246.592 0a48 48 0 1 1 0-96 48 48 0 0 1 0 96z" fill="#00C800" p-id="2428"></path></svg>